<?xml version="1.0" encoding="UTF-8"?>
<svg id="Layer_1" data-name="Layer 1" xmlns="http://www.w3.org/2000/svg" viewBox="0 0 286 73.54">
  <defs>
    <style>
      .cls-1 {
        fill: #1a1a1a;
      }

      .cls-1, .cls-2 {
        stroke-width: 0px;
      }

      .cls-2 {
        fill: #ff5c57;
      }
    </style>
  </defs>
  <rect class="cls-2" width="286" height="73.54"/>
  <g>
    <path class="cls-1" d="m37.62,7.94V0H12.67v31.75c15.12-2.83,24.95-11.72,24.95-23.82Z"/>
    <polygon class="cls-1" points="65.29 31.75 65.29 49.44 37.69 49.44 37.69 73.54 12.74 73.54 12.74 49.44 0 49.44 0 31.75 65.29 31.75"/>
    <path class="cls-1" d="m249.71,29.98c-16.56,0-27.68,8.18-31.24,22.38v-20.61h-24.94v41.79h23.83c1.07-14.52,9.13-23.39,21.55-23.39s20.56,8.47,21.57,23.39h25.52c-1.02-27.35-14.43-43.56-36.29-43.56Z"/>
    <path class="cls-1" d="m126.22,73.54h-26.67l-26.52-41.79h27.75l23.44,37.24c.93,1.42,1.6,2.96,2,4.55Z"/>
    <path class="cls-1" d="m186.88,31.75l-26.52,41.79h-26.67c.4-1.59,1.07-3.13,2.01-4.55l23.44-37.24h27.74Z"/>
  </g>
</svg>