<?xml version="1.0" encoding="UTF-8"?>
<svg aria-hidden="true" class="h-full w-full" focusable="false" height="28" viewBox="0 0 100 100" width="28" xml:space="preserve" xmlns="http://www.w3.org/2000/svg"><path d="M31.81 36.14c-.61 2.64-1.71 4.79-3.29 6.44-1.58 1.65-3.33 2.47-5.25 2.47-1.71 0-3.02-.63-3.95-1.9-1.16-1.6-1.38-4-.64-7.2.71-3.07 2.05-5.41 4.02-7.03 1.47-1.2 3.02-1.81 4.65-1.81 2 0 3.4.82 4.2 2.45.81 1.63.89 3.83.25 6.59m-4.87.03c.72-3.13.53-4.7-.58-4.7-.55 0-1.09.41-1.61 1.23-.5.76-.92 1.88-1.26 3.37-.34 1.46-.45 2.59-.33 3.39.12.8.45 1.21.98 1.21s1.07-.4 1.55-1.19c.5-.79.91-1.9 1.23-3.31M72.45 44.75h-5.06l-.89-6.17c0-.1 0-.24-.02-.42-.02-.17-.04-.38-.06-.62l-.23 1.14-1.4 6.06h-4.66l4-17.32h4.79c2.11 0 3.59.41 4.45 1.25 1.09 1.06 1.4 2.57.95 4.53-.48 2.09-1.71 3.54-3.68 4.34l1.82 7.2Zm-5.49-9.3h.31c.54 0 1.03-.21 1.49-.62.45-.41.75-.93.9-1.57.3-1.29-.23-1.94-1.58-1.94h-.17l-.95 4.13ZM2.48 54.11l1.81-7.84h2.46c.92 0 1.56.2 1.91.61.35.42.46.96.3 1.62-.23.98-.84 1.51-1.83 1.6.54.08.9.26 1.1.55.19.28.23.69.11 1.23-.16.67-.5 1.22-1.03 1.63-.53.41-1.15.62-1.86.62H2.48Zm2.51-1.7h.19c.26 0 .49-.07.68-.21.19-.14.31-.33.36-.56.05-.23.02-.42-.11-.55-.13-.13-.33-.2-.6-.2h-.17l-.35 1.5Zm.71-3.09h.14c.25 0 .47-.06.64-.18.17-.12.29-.28.34-.5.1-.45-.09-.68-.59-.68h-.22l-.31 1.35ZM11.65 54.11H9.53l.77-3.32-.9-4.52h2.21l.11 1.16c.02.23.04.45.05.66.01.21.02.41.02.6.14-.29.27-.54.37-.74.11-.21.2-.38.27-.51l.66-1.17h2.19l-2.87 4.52-.77 3.32Z" style="fill:#fff"></path><path d="M43.14 50.55H23.1L54.74 0l-11.6 50.55Zm-18.13-1.06H42.3l10-43.6-27.29 43.6Z" style="fill:#dbd741"></path><path d="m30.53 100 11.6-50.55h20.04L30.53 100Zm12.44-49.49-10.01 43.6 27.29-43.6H42.96Z" style="fill:#dbd741"></path><path d="M9.38 44.75H4.7l4-17.32h4.53c2.26 0 3.83.46 4.71 1.38 1.04 1.08 1.33 2.59.89 4.52-.48 2.1-1.53 3.67-3.14 4.7-1.1.7-2.52 1.04-4.27 1.04h-.73l-1.31 5.68Zm2.21-9.57h.21c.57.01 1.06-.16 1.48-.51.42-.35.69-.82.83-1.43.14-.6.09-1.08-.16-1.46-.24-.38-.62-.57-1.12-.57h-.33l-.92 3.97ZM50.17 44.75l4-17.32h8.69l-.94 4.07h-4.01l-.58 2.52h3.6l-.91 3.92h-3.6l-.61 2.65h4.02l-.96 4.16h-8.7zM73.26 44.75l4-17.32h8.69l-.94 4.07H81l-.59 2.52h3.6l-.9 3.92h-3.6l-.61 2.65h4.02l-.97 4.16h-8.69zM83.22 44.75l4-17.32h4.04c2.31 0 3.97.62 4.97 1.86 1.32 1.62 1.64 3.89.96 6.81-.66 2.87-1.89 5.09-3.68 6.65-1.53 1.33-3.5 2-5.91 2h-4.38Zm5.64-4.18c1.69-.08 2.87-1.53 3.51-4.33.32-1.38.36-2.48.12-3.28-.24-.81-.72-1.21-1.45-1.21h-.15l-2.03 8.82ZM45.71 44.75H41.2l.32-6.07c.06-1.17.14-2.19.23-3.05.05-.43.08-.78.11-1.07.03-.28.05-.5.07-.65-.11.31-.3.88-.56 1.72-.14.43-.28.87-.45 1.35-.16.47-.34.97-.54 1.49l-2.34 6.28h-4.56l.14-17.32h4.62l-.34 4.77c-.15 1.9-.29 3.39-.43 4.48l-.21 1.58.46-1.36c.52-1.59 1.07-3.09 1.65-4.52l2.02-4.95h4.03l-.17 4.16c-.07 1.94-.28 4.23-.61 6.88.36-1.19.69-2.24 1-3.16.31-.92.61-1.75.9-2.5l2.09-5.37h4.57l-7.51 17.32Z" style="fill:#fff"></path><path d="M38.21 49.45h12.51v1.06H38.21z" style="fill:#dbd741"></path><path d="M23.62 63.66h-4.68l1.61-6.97h-2.24l-1.6 6.97h-4.68l3.99-17.33h4.69l-1.42 6.13h2.23l1.42-6.13h4.68l-4 17.33zM35.85 46.33h4.68L37.7 58.59c-.24 1.03-.59 1.86-1.06 2.49-.47.67-1.13 1.27-1.99 1.81-1.15.72-2.44 1.08-3.85 1.08-1.6 0-2.85-.4-3.76-1.19-1.14-1.01-1.46-2.63-.95-4.85l2.68-11.6h4.68l-2.58 11.18c-.17.76-.21 1.29-.1 1.6.11.31.38.47.82.47s.79-.15 1.03-.44c.24-.31.45-.85.63-1.63l2.58-11.19ZM55.24 63.66h-4.89l1.48-7.9.58-3.15c-.19.61-.39 1.18-.58 1.73-.19.55-.4 1.08-.62 1.6l-3.25 7.72h-3.82l.53-7.73c.03-.45.11-1.22.23-2.31.02-.16.07-.5.13-1.01l-.85 3.2-2.23 7.86h-4.98l6.02-17.33h5.83l-.37 5.84c-.03.48-.08 1-.14 1.56-.07.56-.15 1.17-.25 1.83.35-1.1.71-2.08 1.09-2.95l2.64-6.27h5.78l-2.31 17.33ZM69.71 63.66h-4.84l.16-2.2h-3.15l-.89 2.2h-4.84l8.16-17.33h5.72l-.33 17.33Zm-4.37-5.92.16-2.02s0-.11.02-.3c.02-.16.09-.82.21-1.95.01-.13.04-.3.06-.52.03-.22.06-.5.1-.84l.23-1.64c-.05.16-.11.33-.18.53-.07.19-.15.41-.23.64-.16.46-.27.79-.34.97-.06.18-.1.29-.12.33l-.81 2.1-1.1 2.72h1.98ZM70.5 63.66l4-17.33h4.47l.94 6.08c.04.36.09.77.15 1.23.05.46.11 1 .16 1.61l.13 1.53c.17-1.5.34-2.79.5-3.86.16-1.07.32-1.97.49-2.69l.9-3.9h4.47l-4 17.33h-4.47l-.89-6.38c-.09-.68-.17-1.32-.23-1.91-.06-.59-.1-1.16-.13-1.7-.18 1.22-.36 2.28-.52 3.19-.16.91-.32 1.7-.48 2.38l-1.02 4.42H70.5ZM83.77 63.24l1.26-5.44c.63 1.26 1.48 1.89 2.55 1.89.4 0 .76-.11 1.06-.32.3-.21.49-.48.57-.8.11-.46-.07-.92-.52-1.36l-.63-.59c-.42-.38-.77-.76-1.04-1.14-.27-.38-.47-.77-.61-1.17-.13-.4-.2-.81-.21-1.24 0-.43.05-.88.15-1.35.19-.81.57-1.65 1.15-2.54.28-.41.59-.79.91-1.13.33-.34.68-.64 1.06-.9 1.06-.75 2.21-1.12 3.46-1.12 1.12 0 2.17.3 3.16.89l-1.22 5.3c-.25-.59-.57-1.06-.98-1.4-.41-.34-.85-.51-1.32-.51-.36 0-.68.11-.96.31-.29.2-.46.45-.53.73-.11.46.1.92.64 1.38l.61.55c.82.71 1.36 1.44 1.62 2.19s.28 1.62.05 2.63c-.39 1.71-1.24 3.11-2.53 4.22-1.3 1.11-2.74 1.66-4.33 1.66-1.1 0-2.22-.24-3.37-.73" style="fill:#d42a7d"></path><path d="M19.16 72.82h54.7v1.06h-54.7z" style="fill:#dbd741" transform="rotate(-57.81 46.516 73.35)"></path><path d="m58 49.45 4.36-.01-4.28 6.52 2.72-5.46-.24-.29-.77-.09-1.79-.67z" style="fill:#dbd741"></path></svg>