<?xml version="1.0" encoding="UTF-8"?>
<svg id="Layer_1" data-name="Layer 1" xmlns="http://www.w3.org/2000/svg" viewBox="0 0 642.23 162.87">
  <defs>
    <style>
      .cls-1 {
        fill: #1a1a1a;
      }

      .cls-1, .cls-2 {
        stroke-width: 0px;
      }

      .cls-2 {
        fill: #ff5c57;
      }
    </style>
  </defs>
  <g>
    <path class="cls-1" d="m37.62,7.94V0H12.67v31.75c15.12-2.83,24.95-11.72,24.95-23.82Z"/>
    <path class="cls-1" d="m14.16,31.75H0v17.69h12.74v45.04c0,18.45,11.54,29.46,30.88,29.46,6.73,0,14.06-1.55,19.62-4.14l.46-.21v-19.19l-1.18.65c-3.08,1.71-7.37,2.73-11.47,2.73-8.49,0-13.37-4.49-13.37-12.3v-42.03h27.61v-17.69H14.16Z"/>
    <path class="cls-1" d="m249.7,29.98c-16.56,0-27.68,8.18-31.24,22.38v-20.61h-24.94v131.12h24.94v-61.43c3.56,14.27,14.68,22.5,31.24,22.5,22.77,0,36.36-17.56,36.36-46.98s-13.59-46.98-36.36-46.98Zm-10.8,73.79c-13.17,0-21.68-10.52-21.68-26.82s8.31-26.82,21.68-26.82,21.68,9.77,21.68,26.82-7.9,26.82-21.68,26.82Z"/>
    <path class="cls-1" d="m100.77,31.75h-27.74l28.87,45.48-28.87,45.48h28.09l23.14-37.21c3.27-5.03,3.25-11.51-.04-16.52l-23.44-37.24Z"/>
    <path class="cls-1" d="m159.14,31.75l-23.44,37.24c-3.3,5.01-3.32,11.5-.04,16.52l23.14,37.21h28.09l-28.87-45.48,28.87-45.48h-27.74Z"/>
  </g>
  <g>
    <g>
      <path class="cls-1" d="m351.78,35.89h-12.03v-4.13h28.89v4.13h-12.03v33.45h-4.83v-33.45Z"/>
      <path class="cls-1" d="m366.39,55.81c0-8.11,4.99-14.23,12.94-14.23,6.71,0,12.62,3.81,11.97,15.46h-20.03c.38,4.99,2.68,9.07,8.05,9.07,3.6,0,5.96-2.2,6.77-4.72h4.72c-.75,4.51-4.99,8.65-11.49,8.65-7.95,0-12.94-6.07-12.94-14.23Zm20.3-2.36c-.38-5.42-2.9-7.95-7.36-7.95-4.89,0-7.3,3.54-7.95,7.95h15.3Z"/>
      <path class="cls-1" d="m397.52,55.81c0-8.05,5.15-14.23,13.1-14.23,6.18,0,10.74,3.76,11.6,9.99h-4.83c-.75-3.81-3.38-6.01-6.82-6.01-5.64,0-8.11,4.83-8.11,10.2s2.47,10.31,8.11,10.31c3.49,0,5.85-1.83,6.82-5.32h4.78c-1.02,5.53-5.15,9.29-11.6,9.29-7.89,0-13.05-6.12-13.05-14.23Z"/>
      <path class="cls-1" d="m429.25,31.76h4.78v14.61c1.72-3.01,5.21-4.78,9.08-4.78,5.85,0,9.93,3.7,9.93,10.9v16.86h-4.73v-16.59c0-4.73-2.68-7.2-6.6-7.2-4.24,0-7.68,3.38-7.68,8.16v15.63h-4.78V31.76Z"/>
      <path class="cls-1" d="m461.49,42.28h4.78v4.08c1.72-3.01,5.21-4.78,9.08-4.78,5.85,0,9.93,3.7,9.93,10.9v16.86h-4.73v-16.59c0-4.73-2.68-7.2-6.6-7.2-4.24,0-7.68,3.38-7.68,8.16v15.63h-4.78v-27.06Z"/>
      <path class="cls-1" d="m492.37,55.81c0-8.05,4.83-14.23,13.05-14.23s13.05,6.17,13.05,14.23-4.83,14.23-13.05,14.23-13.05-6.12-13.05-14.23Zm21.21-.05c0-5.21-2.26-10.2-8.16-10.2s-8.16,4.99-8.16,10.2,2.26,10.31,8.16,10.31,8.16-5.05,8.16-10.31Z"/>
      <path class="cls-1" d="m522.89,65.43h10.47v-29.75h-8.54v-3.92h13.32v33.67h10.42v3.92h-25.67v-3.92Z"/>
      <path class="cls-1" d="m552.98,55.81c0-8.05,4.83-14.23,13.05-14.23s13.05,6.17,13.05,14.23-4.83,14.23-13.05,14.23-13.05-6.12-13.05-14.23Zm21.21-.05c0-5.21-2.26-10.2-8.16-10.2s-8.16,4.99-8.16,10.2,2.26,10.31,8.16,10.31,8.16-5.05,8.16-10.31Z"/>
      <path class="cls-1" d="m586.24,70.74h4.83c.81,2.95,2.95,4.19,7.14,4.19,3.87,0,7.46-1.99,7.46-7.46v-3.49c-2.04,3.38-5.26,4.78-8.81,4.78-6.5,0-11.81-5.75-11.81-13.64s5.32-13.53,11.81-13.53c3.6,0,7.03,1.66,8.81,4.72v-4.03h4.72v25.13c0,8.38-5.96,11.38-12.35,11.38-6.82,0-11.12-2.9-11.81-8.05Zm19.71-15.68c0-5.69-3.22-9.5-8.05-9.5s-8,3.81-8,9.5,3.17,9.83,8,9.83,8.05-4.19,8.05-9.83Z"/>
      <path class="cls-1" d="m618.23,74.39h4.62c1.72,0,2.58-.38,3.17-1.93l1.29-3.6-10.85-26.58h5.1l8.11,20.46,7.57-20.46h5l-12.19,31.79c-1.34,3.49-3.33,4.19-6.5,4.19h-5.31v-3.87Z"/>
    </g>
    <path class="cls-2" d="m351.35,103.42l-11.71-18.26h5.53l8.97,14.34,9.08-14.34h5.53l-12.03,18.2,12.78,19.38h-5.58l-9.83-15.52-10.09,15.52h-5.53l12.89-19.33Z"/>
    <g>
      <path class="cls-1" d="m405.69,85.16h-15.04v37.59h4.89v-14.87h10.15c6.39,0,11.22-4.51,11.22-11.33s-4.83-11.38-11.22-11.38Zm-.91,18.69h-9.24v-14.61h9.24c4.35,0,7.03,2.9,7.03,7.3s-2.68,7.3-7.03,7.3Z"/>
      <path class="cls-1" d="m433.72,94.99c-7.95,0-12.94,6.12-12.94,14.23s4.99,14.23,12.94,14.23c6.5,0,10.74-4.13,11.49-8.65h-4.72c-.81,2.52-3.17,4.72-6.77,4.72-5.37,0-7.68-4.08-8.05-9.07h20.03c.64-11.65-5.26-15.46-11.97-15.46Zm-7.95,11.87c.64-4.4,3.06-7.95,7.95-7.95,4.46,0,6.98,2.52,7.36,7.95h-15.3Z"/>
      <path class="cls-1" d="m464.61,94.99c-8.22,0-13.05,6.17-13.05,14.23s4.83,14.23,13.05,14.23,13.05-6.12,13.05-14.23-4.83-14.23-13.05-14.23Zm0,24.48c-5.91,0-8.16-5.05-8.16-10.31s2.26-10.2,8.16-10.2,8.16,4.99,8.16,10.2-2.26,10.31-8.16,10.31Z"/>
      <path class="cls-1" d="m498.04,94.99c-3.81,0-6.87,1.56-9.07,4.78v-4.08h-4.73v35.98h4.73v-12.94c1.93,3.11,5.26,4.73,9.07,4.73,6.44,0,11.76-5.64,11.76-14.12s-5.32-14.34-11.76-14.34Zm-1.18,24.48c-5.1,0-8.11-4.35-8.11-10.2s3.01-10.31,8.11-10.31,8,4.4,8,10.36-2.95,10.15-8,10.15Z"/>
      <polygon class="cls-1" points="529.45 85.16 516.13 85.16 516.13 89.08 524.67 89.08 524.67 118.83 514.2 118.83 514.2 122.75 539.87 122.75 539.87 118.83 529.45 118.83 529.45 85.16"/>
      <path class="cls-1" d="m557.46,94.99c-7.95,0-12.94,6.12-12.94,14.23s4.99,14.23,12.94,14.23c6.5,0,10.74-4.13,11.49-8.65h-4.72c-.81,2.52-3.17,4.72-6.77,4.72-5.37,0-7.68-4.08-8.05-9.07h20.03c.64-11.65-5.26-15.46-11.97-15.46Zm-7.95,11.87c.64-4.4,3.06-7.95,7.95-7.95,4.46,0,6.98,2.52,7.36,7.95h-15.3Z"/>
    </g>
  </g>
</svg>